<svg width="23" height="25" viewBox="0 0 23 25" fill="none" xmlns="http://www.w3.org/2000/svg">
<mask id="mask0_2_51" style="mask-type:alpha" maskUnits="userSpaceOnUse" x="-4" y="-3" width="31" height="31">
<rect x="-3.75" y="-2.5" width="30" height="30" fill="#D9D9D9"/>
</mask>
<g mask="url(#mask0_2_51)">
<path d="M3.75 25C2.70833 25 1.82292 24.6354 1.09375 23.9062C0.364583 23.1771 0 22.2917 0 21.25V3.75C0 2.70833 0.364583 1.82292 1.09375 1.09375C1.82292 0.364583 2.70833 0 3.75 0H17.5V20H3.75C3.39583 20 3.09896 20.1198 2.85938 20.3594C2.61979 20.599 2.5 20.8958 2.5 21.25C2.5 21.6042 2.61979 21.901 2.85938 22.1406C3.09896 22.3802 3.39583 22.5 3.75 22.5H20V2.5H22.5V25H3.75ZM7.5 17.5H15V2.5H7.5V17.5ZM5 17.5V2.5H3.75C3.39583 2.5 3.09896 2.61979 2.85938 2.85938C2.61979 3.09896 2.5 3.39583 2.5 3.75V17.7188C2.70833 17.6562 2.91146 17.6042 3.10938 17.5625C3.30729 17.5208 3.52083 17.5 3.75 17.5H5Z" fill="#B2B2B2"/>
</g>
</svg>
