<svg width="40" height="24" viewBox="0 0 40 24" fill="none" xmlns="http://www.w3.org/2000/svg">
<line x1="0.5" y1="2.18557e-08" x2="0.499999" y2="24" stroke="#CACACA"/>
<mask id="mask0_3_61" style="mask-type:alpha" maskUnits="userSpaceOnUse" x="16" y="0" width="24" height="24">
<rect x="16" width="24" height="24" fill="#D9D9D9"/>
</mask>
<g mask="url(#mask0_3_61)">
<path d="M20 20C19.45 20 18.9792 19.8042 18.5875 19.4125C18.1958 19.0208 18 18.55 18 18V6C18 5.45 18.1958 4.97917 18.5875 4.5875C18.9792 4.19583 19.45 4 20 4H26L28 6H36C36.55 6 37.0208 6.19583 37.4125 6.5875C37.8042 6.97917 38 7.45 38 8H27.175L25.175 6H20V18L22.4 10H39.5L36.925 18.575C36.7917 19.0083 36.5458 19.3542 36.1875 19.6125C35.8292 19.8708 35.4333 20 35 20H20ZM22.1 18H35L36.8 12H23.9L22.1 18Z" fill="#272727"/>
</g>
</svg>
